<?xml version="1.0" encoding="UTF-8" standalone="no"?>
<!DOCTYPE svg PUBLIC "-//W3C//DTD SVG 1.1//EN"
 "http://www.w3.org/Graphics/SVG/1.1/DTD/svg11.dtd">
<!-- Generated by graphviz version 2.38.0 (20140413.2041)
 -->
<!-- Title: controllers_diagram Pages: 1 -->
<svg width="409pt" height="489pt"
 viewBox="0.00 0.00 408.82 489.00" xmlns="http://www.w3.org/2000/svg" xmlns:xlink="http://www.w3.org/1999/xlink">
<g id="graph0" class="graph" transform="scale(1 1) rotate(0) translate(79.2759 275.5)">
<title>controllers_diagram</title>
<polygon fill="white" stroke="none" points="-79.2759,213.5 -79.2759,-275.5 329.545,-275.5 329.545,213.5 -79.2759,213.5"/>
<!-- _diagram_info -->
<g id="node1" class="node"><title>_diagram_info</title>
<text text-anchor="start" x="98.3123" y="-134.1" font-family="Times,serif" font-size="13.00">Controllers diagram</text>
<text text-anchor="start" x="98.3123" y="-121.1" font-family="Times,serif" font-size="13.00">Date: Nov 03 2014 &#45; 08:48</text>
<text text-anchor="start" x="98.3123" y="-108.1" font-family="Times,serif" font-size="13.00">Migration version: 20140910035337</text>
<text text-anchor="start" x="98.3123" y="-95.1" font-family="Times,serif" font-size="13.00">Generated by RailRoady 1.2.0</text>
<text text-anchor="start" x="98.3123" y="-82.1" font-family="Times,serif" font-size="13.00">http://railroady.prestonlee.com</text>
</g>
<!-- ApplicationController -->
<g id="node2" class="node"><title>ApplicationController</title>
<path fill="none" stroke="black" d="M-62.8208,-106C-62.8208,-106 52.8208,-106 52.8208,-106 58.8208,-106 64.8208,-112 64.8208,-118 64.8208,-118 64.8208,-186 64.8208,-186 64.8208,-192 58.8208,-198 52.8208,-198 52.8208,-198 -62.8208,-198 -62.8208,-198 -68.8208,-198 -74.8208,-192 -74.8208,-186 -74.8208,-186 -74.8208,-118 -74.8208,-118 -74.8208,-112 -68.8208,-106 -62.8208,-106"/>
<text text-anchor="middle" x="-5" y="-182.8" font-family="Times,serif" font-size="14.00">ApplicationController</text>
<polyline fill="none" stroke="black" points="-74.8208,-176 64.8208,-176 "/>
<polyline fill="none" stroke="black" points="-74.8208,-152 64.8208,-152 "/>
<polyline fill="none" stroke="black" points="-74.8208,-128 64.8208,-128 "/>
<text text-anchor="start" x="-66.8208" y="-112.8" font-family="Times,serif" font-size="14.00">_layout</text>
</g>
<!-- BudgetEventsController -->
<g id="node3" class="node"><title>BudgetEventsController</title>
<path fill="none" stroke="black" d="M101.955,89C101.955,89 230.045,89 230.045,89 236.045,89 242.045,83 242.045,77 242.045,77 242.045,-31 242.045,-31 242.045,-37 236.045,-43 230.045,-43 230.045,-43 101.955,-43 101.955,-43 95.9551,-43 89.9551,-37 89.9551,-31 89.9551,-31 89.9551,77 89.9551,77 89.9551,83 95.9551,89 101.955,89"/>
<text text-anchor="middle" x="166" y="-27.8" font-family="Times,serif" font-size="14.00">BudgetEventsController</text>
<polyline fill="none" stroke="black" points="89.9551,-21 242.045,-21 "/>
<text text-anchor="start" x="97.9551" y="-5.8" font-family="Times,serif" font-size="14.00">create</text>
<text text-anchor="start" x="97.9551" y="8.2" font-family="Times,serif" font-size="14.00">destroy</text>
<text text-anchor="start" x="97.9551" y="22.2" font-family="Times,serif" font-size="14.00">index</text>
<text text-anchor="start" x="97.9551" y="36.2" font-family="Times,serif" font-size="14.00">update</text>
<polyline fill="none" stroke="black" points="89.9551,43 242.045,43 "/>
<polyline fill="none" stroke="black" points="89.9551,67 242.045,67 "/>
<text text-anchor="start" x="97.9551" y="82.2" font-family="Times,serif" font-size="14.00">_layout</text>
</g>
<!-- HomeController -->
<g id="node4" class="node"><title>HomeController</title>
<path fill="none" stroke="black" d="M12.1206,209C12.1206,209 95.8794,209 95.8794,209 101.879,209 107.879,203 107.879,197 107.879,197 107.879,131 107.879,131 107.879,125 101.879,119 95.8794,119 95.8794,119 12.1206,119 12.1206,119 6.12061,119 0.120605,125 0.120605,131 0.120605,131 0.120605,197 0.120605,197 0.120605,203 6.12061,209 12.1206,209"/>
<text text-anchor="middle" x="54" y="134.2" font-family="Times,serif" font-size="14.00">HomeController</text>
<polyline fill="none" stroke="black" points="0.120605,141 107.879,141 "/>
<text text-anchor="start" x="8.12061" y="156.2" font-family="Times,serif" font-size="14.00">index</text>
<polyline fill="none" stroke="black" points="0.120605,163 107.879,163 "/>
<polyline fill="none" stroke="black" points="0.120605,187 107.879,187 "/>
<text text-anchor="start" x="8.12061" y="202.2" font-family="Times,serif" font-size="14.00">_layout</text>
</g>
<!-- InstitutionsController -->
<g id="node5" class="node"><title>InstitutionsController</title>
<path fill="none" stroke="black" d="M-63.2759,89C-63.2759,89 49.2759,89 49.2759,89 55.2759,89 61.2759,83 61.2759,77 61.2759,77 61.2759,-59 61.2759,-59 61.2759,-65 55.2759,-71 49.2759,-71 49.2759,-71 -63.2759,-71 -63.2759,-71 -69.2759,-71 -75.2759,-65 -75.2759,-59 -75.2759,-59 -75.2759,77 -75.2759,77 -75.2759,83 -69.2759,89 -63.2759,89"/>
<text text-anchor="middle" x="-7" y="-55.8" font-family="Times,serif" font-size="14.00">InstitutionsController</text>
<polyline fill="none" stroke="black" points="-75.2759,-49 61.2759,-49 "/>
<text text-anchor="start" x="-67.2759" y="-33.8" font-family="Times,serif" font-size="14.00">authorize</text>
<text text-anchor="start" x="-67.2759" y="-19.8" font-family="Times,serif" font-size="14.00">begin</text>
<text text-anchor="start" x="-67.2759" y="-5.8" font-family="Times,serif" font-size="14.00">mfa</text>
<text text-anchor="start" x="-67.2759" y="8.2" font-family="Times,serif" font-size="14.00">step</text>
<text text-anchor="start" x="-67.2759" y="22.2" font-family="Times,serif" font-size="14.00">update</text>
<polyline fill="none" stroke="black" points="-75.2759,29 61.2759,29 "/>
<polyline fill="none" stroke="black" points="-75.2759,53 61.2759,53 "/>
<text text-anchor="start" x="-67.2759" y="68.2" font-family="Times,serif" font-size="14.00">_layout</text>
<text text-anchor="start" x="-67.2759" y="82.2" font-family="Times,serif" font-size="14.00">route_mfa_step</text>
</g>
<!-- Users::UsersController -->
<g id="node6" class="node"><title>Users::UsersController</title>
<path fill="none" stroke="black" d="M192.455,-181C192.455,-181 313.545,-181 313.545,-181 319.545,-181 325.545,-187 325.545,-193 325.545,-193 325.545,-259 325.545,-259 325.545,-265 319.545,-271 313.545,-271 313.545,-271 192.455,-271 192.455,-271 186.455,-271 180.455,-265 180.455,-259 180.455,-259 180.455,-193 180.455,-193 180.455,-187 186.455,-181 192.455,-181"/>
<text text-anchor="middle" x="253" y="-255.8" font-family="Times,serif" font-size="14.00">Users::UsersController</text>
<polyline fill="none" stroke="black" points="180.455,-249 325.545,-249 "/>
<text text-anchor="start" x="188.455" y="-233.8" font-family="Times,serif" font-size="14.00">update</text>
<polyline fill="none" stroke="black" points="180.455,-227 325.545,-227 "/>
<polyline fill="none" stroke="black" points="180.455,-203 325.545,-203 "/>
<text text-anchor="start" x="188.455" y="-187.8" font-family="Times,serif" font-size="14.00">_layout</text>
</g>
</g>
</svg>
