<?xml version="1.0" encoding="UTF-8" standalone="no"?>
<!DOCTYPE svg PUBLIC "-//W3C//DTD SVG 1.1//EN"
 "http://www.w3.org/Graphics/SVG/1.1/DTD/svg11.dtd">
<!-- Generated by graphviz version 2.38.0 (20140413.2041)
 -->
<!-- Title: models_diagram Pages: 1 -->
<svg width="574pt" height="225pt"
 viewBox="0.00 0.00 573.69 225.00" xmlns="http://www.w3.org/2000/svg" xmlns:xlink="http://www.w3.org/1999/xlink">
<g id="graph0" class="graph" transform="scale(1 1) rotate(0) translate(4 221)">
<title>models_diagram</title>
<polygon fill="white" stroke="none" points="-4,4 -4,-221 569.688,-221 569.688,4 -4,4"/>
<!-- _diagram_info -->
<g id="node1" class="node"><title>_diagram_info</title>
<text text-anchor="start" x="8" y="-202.6" font-family="Times,serif" font-size="13.00">Models diagram</text>
<text text-anchor="start" x="8" y="-189.6" font-family="Times,serif" font-size="13.00">Date: Nov 03 2014 &#45; 08:48</text>
<text text-anchor="start" x="8" y="-176.6" font-family="Times,serif" font-size="13.00">Migration version: 20140910035337</text>
<text text-anchor="start" x="8" y="-163.6" font-family="Times,serif" font-size="13.00">Generated by RailRoady 1.2.0</text>
<text text-anchor="start" x="8" y="-150.6" font-family="Times,serif" font-size="13.00">http://railroady.prestonlee.com</text>
</g>
<!-- AccountBalance -->
<g id="node2" class="node"><title>AccountBalance</title>
<ellipse fill="none" stroke="black" cx="394.688" cy="-18" rx="68.5873" ry="18"/>
<text text-anchor="middle" x="394.688" y="-13.8" font-family="Times,serif" font-size="14.00">AccountBalance</text>
</g>
<!-- BudgetEvent -->
<g id="node3" class="node"><title>BudgetEvent</title>
<ellipse fill="none" stroke="black" cx="100.688" cy="-90" rx="56.0614" ry="18"/>
<text text-anchor="middle" x="100.688" y="-85.8" font-family="Times,serif" font-size="14.00">BudgetEvent</text>
</g>
<!-- FinancialLoveNote -->
<g id="node4" class="node"><title>FinancialLoveNote</title>
<polygon fill="none" stroke="black" points="421.764,-198.5 297.612,-198.5 297.612,-162.5 421.764,-162.5 421.764,-198.5"/>
<text text-anchor="middle" x="359.688" y="-176.3" font-family="Times,serif" font-size="14.00">FinancialLoveNote</text>
</g>
<!-- FinancialSummary -->
<g id="node5" class="node"><title>FinancialSummary</title>
<ellipse fill="none" stroke="black" cx="252.688" cy="-90" rx="77.3089" ry="18"/>
<text text-anchor="middle" x="252.688" y="-85.8" font-family="Times,serif" font-size="14.00">FinancialSummary</text>
</g>
<!-- Institution -->
<g id="node6" class="node"><title>Institution</title>
<ellipse fill="none" stroke="black" cx="394.688" cy="-90" rx="46.4304" ry="18"/>
<text text-anchor="middle" x="394.688" y="-85.8" font-family="Times,serif" font-size="14.00">Institution</text>
</g>
<!-- Institution&#45;&gt;AccountBalance -->
<g id="edge1" class="edge"><title>Institution&#45;&gt;AccountBalance</title>
<path fill="none" stroke="#f5255e" d="M394.688,-63.6398C394.688,-58.0629 394.688,-52.1319 394.688,-46.4761"/>
<ellipse fill="none" stroke="#f5255e" cx="394.688" cy="-67.6966" rx="4" ry="4"/>
<polygon fill="#f5255e" stroke="#f5255e" points="394.688,-46.1043 399.188,-36.1043 394.688,-41.1043 394.688,-36.1043 394.688,-36.1043 394.688,-36.1043 394.688,-41.1043 390.188,-36.1044 394.688,-46.1043 394.688,-46.1043"/>
</g>
<!-- Plaid -->
<g id="node7" class="node"><title>Plaid</title>
<polygon fill="none" stroke="black" points="493.688,-198.5 439.688,-198.5 439.688,-162.5 493.688,-162.5 493.688,-198.5"/>
<text text-anchor="middle" x="466.688" y="-176.3" font-family="Times,serif" font-size="14.00">Plaid</text>
</g>
<!-- Sms -->
<g id="node8" class="node"><title>Sms</title>
<polygon fill="none" stroke="black" points="565.688,-198.5 511.688,-198.5 511.688,-162.5 565.688,-162.5 565.688,-198.5"/>
<text text-anchor="middle" x="538.688" y="-176.3" font-family="Times,serif" font-size="14.00">Sms</text>
</g>
<!-- User -->
<g id="node9" class="node"><title>User</title>
<ellipse fill="none" stroke="black" cx="252.688" cy="-180.5" rx="27" ry="18"/>
<text text-anchor="middle" x="252.688" y="-176.3" font-family="Times,serif" font-size="14.00">User</text>
</g>
<!-- User&#45;&gt;BudgetEvent -->
<g id="edge3" class="edge"><title>User&#45;&gt;BudgetEvent</title>
<path fill="none" stroke="#8414a2" d="M233.876,-158.509C228.633,-153.367 222.713,-148.153 216.688,-144 195.17,-129.168 168.835,-116.747 146.699,-107.665"/>
<ellipse fill="none" stroke="#8414a2" cx="236.888" cy="-161.587" rx="4.00002" ry="4.00002"/>
<polygon fill="#8414a2" stroke="#8414a2" points="146.462,-107.571 138.848,-99.6782 141.819,-105.713 137.177,-103.856 137.177,-103.856 137.177,-103.856 141.819,-105.713 135.505,-108.034 146.462,-107.571 146.462,-107.571"/>
</g>
<!-- User&#45;&gt;FinancialSummary -->
<g id="edge4" class="edge"><title>User&#45;&gt;FinancialSummary</title>
<path fill="none" stroke="#a38a00" d="M252.688,-154.189C252.688,-142.971 252.688,-129.752 252.688,-118.311"/>
<ellipse fill="none" stroke="#a38a00" cx="252.688" cy="-158.436" rx="4" ry="4"/>
<polygon fill="#a38a00" stroke="#a38a00" points="252.688,-118.011 257.188,-108.011 252.688,-113.011 252.688,-108.011 252.688,-108.011 252.688,-108.011 252.688,-113.011 248.188,-108.011 252.688,-118.011 252.688,-118.011"/>
</g>
<!-- User&#45;&gt;Institution -->
<g id="edge2" class="edge"><title>User&#45;&gt;Institution</title>
<path fill="none" stroke="#df1710" d="M271.6,-158.653C276.842,-153.508 282.736,-148.258 288.688,-144 308.911,-129.531 333.665,-116.911 354.165,-107.619"/>
<ellipse fill="none" stroke="#df1710" cx="268.585" cy="-161.723" rx="4.00002" ry="4.00002"/>
<polygon fill="#df1710" stroke="#df1710" points="354.406,-107.512 365.372,-107.574 358.978,-105.486 363.549,-103.46 363.549,-103.46 363.549,-103.46 358.978,-105.486 361.726,-99.3461 354.406,-107.512 354.406,-107.512"/>
</g>
</g>
</svg>
