<?xml version="1.0" encoding="UTF-8" standalone="no"?>
<!DOCTYPE svg PUBLIC "-//W3C//DTD SVG 1.1//EN"
 "http://www.w3.org/Graphics/SVG/1.1/DTD/svg11.dtd">
<!-- Generated by graphviz version 2.38.0 (20140413.2041)
 -->
<!-- Title: models_diagram Pages: 1 -->
<svg width="724pt" height="565pt"
 viewBox="0.00 0.00 723.69 565.00" xmlns="http://www.w3.org/2000/svg" xmlns:xlink="http://www.w3.org/1999/xlink">
<g id="graph0" class="graph" transform="scale(1 1) rotate(0) translate(4 561)">
<title>models_diagram</title>
<polygon fill="white" stroke="none" points="-4,4 -4,-561 719.688,-561 719.688,4 -4,4"/>
<!-- _diagram_info -->
<g id="node1" class="node"><title>_diagram_info</title>
<text text-anchor="start" x="8" y="-465.6" font-family="Times,serif" font-size="13.00">Models diagram</text>
<text text-anchor="start" x="8" y="-452.6" font-family="Times,serif" font-size="13.00">Date: Nov 03 2014 &#45; 08:48</text>
<text text-anchor="start" x="8" y="-439.6" font-family="Times,serif" font-size="13.00">Migration version: 20140910035337</text>
<text text-anchor="start" x="8" y="-426.6" font-family="Times,serif" font-size="13.00">Generated by RailRoady 1.2.0</text>
<text text-anchor="start" x="8" y="-413.6" font-family="Times,serif" font-size="13.00">http://railroady.prestonlee.com</text>
</g>
<!-- AccountBalance -->
<g id="node2" class="node"><title>AccountBalance</title>
<path fill="none" stroke="black" d="M440.22,-0.5C440.22,-0.5 553.155,-0.5 553.155,-0.5 559.155,-0.5 565.155,-6.5 565.155,-12.5 565.155,-12.5 565.155,-102.5 565.155,-102.5 565.155,-108.5 559.155,-114.5 553.155,-114.5 553.155,-114.5 440.22,-114.5 440.22,-114.5 434.22,-114.5 428.22,-108.5 428.22,-102.5 428.22,-102.5 428.22,-12.5 428.22,-12.5 428.22,-6.5 434.22,-0.5 440.22,-0.5"/>
<text text-anchor="middle" x="496.688" y="-99.3" font-family="Times,serif" font-size="14.00">AccountBalance</text>
<polyline fill="none" stroke="black" points="428.22,-92.5 565.155,-92.5 "/>
<text text-anchor="start" x="436.22" y="-77.3" font-family="Times,serif" font-size="14.00">id :integer</text>
<text text-anchor="start" x="436.22" y="-63.3" font-family="Times,serif" font-size="14.00">value :float</text>
<text text-anchor="start" x="436.22" y="-49.3" font-family="Times,serif" font-size="14.00">institution_id :integer</text>
<text text-anchor="start" x="436.22" y="-35.3" font-family="Times,serif" font-size="14.00">created_at :datetime</text>
<text text-anchor="start" x="436.22" y="-21.3" font-family="Times,serif" font-size="14.00">updated_at :datetime</text>
<text text-anchor="start" x="436.22" y="-7.3" font-family="Times,serif" font-size="14.00">function :string</text>
</g>
<!-- BudgetEvent -->
<g id="node3" class="node"><title>BudgetEvent</title>
<path fill="none" stroke="black" d="M122.182,-158.5C122.182,-158.5 231.193,-158.5 231.193,-158.5 237.193,-158.5 243.193,-164.5 243.193,-170.5 243.193,-170.5 243.193,-274.5 243.193,-274.5 243.193,-280.5 237.193,-286.5 231.193,-286.5 231.193,-286.5 122.182,-286.5 122.182,-286.5 116.182,-286.5 110.182,-280.5 110.182,-274.5 110.182,-274.5 110.182,-170.5 110.182,-170.5 110.182,-164.5 116.182,-158.5 122.182,-158.5"/>
<text text-anchor="middle" x="176.688" y="-271.3" font-family="Times,serif" font-size="14.00">BudgetEvent</text>
<polyline fill="none" stroke="black" points="110.182,-264.5 243.193,-264.5 "/>
<text text-anchor="start" x="118.182" y="-249.3" font-family="Times,serif" font-size="14.00">id :integer</text>
<text text-anchor="start" x="118.182" y="-235.3" font-family="Times,serif" font-size="14.00">description :string</text>
<text text-anchor="start" x="118.182" y="-221.3" font-family="Times,serif" font-size="14.00">value :float</text>
<text text-anchor="start" x="118.182" y="-207.3" font-family="Times,serif" font-size="14.00">user_id :integer</text>
<text text-anchor="start" x="118.182" y="-193.3" font-family="Times,serif" font-size="14.00">created_at :datetime</text>
<text text-anchor="start" x="118.182" y="-179.3" font-family="Times,serif" font-size="14.00">updated_at :datetime</text>
<text text-anchor="start" x="118.182" y="-165.3" font-family="Times,serif" font-size="14.00">month_day :integer</text>
</g>
<!-- FinancialLoveNote -->
<g id="node4" class="node"><title>FinancialLoveNote</title>
<polygon fill="none" stroke="black" points="447.65,-421.5 447.65,-465.5 571.726,-465.5 571.726,-421.5 447.65,-421.5"/>
<text text-anchor="middle" x="509.688" y="-450.3" font-family="Times,serif" font-size="14.00">FinancialLoveNote</text>
<polyline fill="none" stroke="black" points="447.65,-443.5 571.726,-443.5 "/>
<text text-anchor="middle" x="509.688" y="-428.3" font-family="Times,serif" font-size="14.00"> </text>
</g>
<!-- FinancialSummary -->
<g id="node5" class="node"><title>FinancialSummary</title>
<path fill="none" stroke="black" d="M273.182,-165.5C273.182,-165.5 382.193,-165.5 382.193,-165.5 388.193,-165.5 394.193,-171.5 394.193,-177.5 394.193,-177.5 394.193,-267.5 394.193,-267.5 394.193,-273.5 388.193,-279.5 382.193,-279.5 382.193,-279.5 273.182,-279.5 273.182,-279.5 267.182,-279.5 261.182,-273.5 261.182,-267.5 261.182,-267.5 261.182,-177.5 261.182,-177.5 261.182,-171.5 267.182,-165.5 273.182,-165.5"/>
<text text-anchor="middle" x="327.688" y="-264.3" font-family="Times,serif" font-size="14.00">FinancialSummary</text>
<polyline fill="none" stroke="black" points="261.182,-257.5 394.193,-257.5 "/>
<text text-anchor="start" x="269.182" y="-242.3" font-family="Times,serif" font-size="14.00">id :integer</text>
<text text-anchor="start" x="269.182" y="-228.3" font-family="Times,serif" font-size="14.00">value :float</text>
<text text-anchor="start" x="269.182" y="-214.3" font-family="Times,serif" font-size="14.00">user_id :string</text>
<text text-anchor="start" x="269.182" y="-200.3" font-family="Times,serif" font-size="14.00">integer :string</text>
<text text-anchor="start" x="269.182" y="-186.3" font-family="Times,serif" font-size="14.00">created_at :datetime</text>
<text text-anchor="start" x="269.182" y="-172.3" font-family="Times,serif" font-size="14.00">updated_at :datetime</text>
</g>
<!-- Institution -->
<g id="node6" class="node"><title>Institution</title>
<path fill="none" stroke="black" d="M424.3,-151.5C424.3,-151.5 569.076,-151.5 569.076,-151.5 575.076,-151.5 581.076,-157.5 581.076,-163.5 581.076,-163.5 581.076,-281.5 581.076,-281.5 581.076,-287.5 575.076,-293.5 569.076,-293.5 569.076,-293.5 424.3,-293.5 424.3,-293.5 418.3,-293.5 412.3,-287.5 412.3,-281.5 412.3,-281.5 412.3,-163.5 412.3,-163.5 412.3,-157.5 418.3,-151.5 424.3,-151.5"/>
<text text-anchor="middle" x="496.688" y="-278.3" font-family="Times,serif" font-size="14.00">Institution</text>
<polyline fill="none" stroke="black" points="412.3,-271.5 581.076,-271.5 "/>
<text text-anchor="start" x="420.3" y="-256.3" font-family="Times,serif" font-size="14.00">id :integer</text>
<text text-anchor="start" x="420.3" y="-242.3" font-family="Times,serif" font-size="14.00">name :string</text>
<text text-anchor="start" x="420.3" y="-228.3" font-family="Times,serif" font-size="14.00">token :string</text>
<text text-anchor="start" x="420.3" y="-214.3" font-family="Times,serif" font-size="14.00">user_id :integer</text>
<text text-anchor="start" x="420.3" y="-200.3" font-family="Times,serif" font-size="14.00">created_at :datetime</text>
<text text-anchor="start" x="420.3" y="-186.3" font-family="Times,serif" font-size="14.00">updated_at :datetime</text>
<text text-anchor="start" x="420.3" y="-172.3" font-family="Times,serif" font-size="14.00">valid_token :boolean</text>
<text text-anchor="start" x="420.3" y="-158.3" font-family="Times,serif" font-size="14.00">account_of_concern :string</text>
</g>
<!-- Institution&#45;&gt;AccountBalance -->
<g id="edge1" class="edge"><title>Institution&#45;&gt;AccountBalance</title>
<path fill="none" stroke="#cfe948" d="M496.688,-143.348C496.688,-137.166 496.688,-130.958 496.688,-124.867"/>
<ellipse fill="none" stroke="#cfe948" cx="496.688" cy="-147.427" rx="4" ry="4"/>
<polygon fill="#cfe948" stroke="#cfe948" points="496.688,-124.752 501.188,-114.752 496.688,-119.752 496.688,-114.752 496.688,-114.752 496.688,-114.752 496.688,-119.752 492.188,-114.752 496.688,-124.752 496.688,-124.752"/>
</g>
<!-- Plaid -->
<g id="node7" class="node"><title>Plaid</title>
<polygon fill="none" stroke="black" points="589.688,-421.5 589.688,-465.5 643.688,-465.5 643.688,-421.5 589.688,-421.5"/>
<text text-anchor="middle" x="616.577" y="-450.3" font-family="Times,serif" font-size="14.00">Plaid</text>
<polyline fill="none" stroke="black" points="589.688,-443.5 643.467,-443.5 "/>
<text text-anchor="middle" x="616.577" y="-428.3" font-family="Times,serif" font-size="14.00"> </text>
</g>
<!-- Sms -->
<g id="node8" class="node"><title>Sms</title>
<polygon fill="none" stroke="black" points="661.688,-421.5 661.688,-465.5 715.688,-465.5 715.688,-421.5 661.688,-421.5"/>
<text text-anchor="middle" x="688.25" y="-450.3" font-family="Times,serif" font-size="14.00">Sms</text>
<polyline fill="none" stroke="black" points="661.688,-443.5 714.812,-443.5 "/>
<text text-anchor="middle" x="688.25" y="-428.3" font-family="Times,serif" font-size="14.00"> </text>
</g>
<!-- User -->
<g id="node9" class="node"><title>User</title>
<path fill="none" stroke="black" d="M237.41,-330.5C237.41,-330.5 417.966,-330.5 417.966,-330.5 423.966,-330.5 429.966,-336.5 429.966,-342.5 429.966,-342.5 429.966,-544.5 429.966,-544.5 429.966,-550.5 423.966,-556.5 417.966,-556.5 417.966,-556.5 237.41,-556.5 237.41,-556.5 231.41,-556.5 225.41,-550.5 225.41,-544.5 225.41,-544.5 225.41,-342.5 225.41,-342.5 225.41,-336.5 231.41,-330.5 237.41,-330.5"/>
<text text-anchor="middle" x="327.688" y="-541.3" font-family="Times,serif" font-size="14.00">User</text>
<polyline fill="none" stroke="black" points="225.41,-534.5 429.966,-534.5 "/>
<text text-anchor="start" x="233.41" y="-519.3" font-family="Times,serif" font-size="14.00">id :integer</text>
<text text-anchor="start" x="233.41" y="-505.3" font-family="Times,serif" font-size="14.00">email :string</text>
<text text-anchor="start" x="233.41" y="-491.3" font-family="Times,serif" font-size="14.00">encrypted_password :string</text>
<text text-anchor="start" x="233.41" y="-477.3" font-family="Times,serif" font-size="14.00">reset_password_token :string</text>
<text text-anchor="start" x="233.41" y="-463.3" font-family="Times,serif" font-size="14.00">reset_password_sent_at :datetime</text>
<text text-anchor="start" x="233.41" y="-449.3" font-family="Times,serif" font-size="14.00">remember_created_at :datetime</text>
<text text-anchor="start" x="233.41" y="-435.3" font-family="Times,serif" font-size="14.00">sign_in_count :integer</text>
<text text-anchor="start" x="233.41" y="-421.3" font-family="Times,serif" font-size="14.00">current_sign_in_at :datetime</text>
<text text-anchor="start" x="233.41" y="-407.3" font-family="Times,serif" font-size="14.00">last_sign_in_at :datetime</text>
<text text-anchor="start" x="233.41" y="-393.3" font-family="Times,serif" font-size="14.00">current_sign_in_ip :inet</text>
<text text-anchor="start" x="233.41" y="-379.3" font-family="Times,serif" font-size="14.00">last_sign_in_ip :inet</text>
<text text-anchor="start" x="233.41" y="-365.3" font-family="Times,serif" font-size="14.00">created_at :datetime</text>
<text text-anchor="start" x="233.41" y="-351.3" font-family="Times,serif" font-size="14.00">updated_at :datetime</text>
<text text-anchor="start" x="233.41" y="-337.3" font-family="Times,serif" font-size="14.00">phone_number :integer</text>
</g>
<!-- User&#45;&gt;BudgetEvent -->
<g id="edge3" class="edge"><title>User&#45;&gt;BudgetEvent</title>
<path fill="none" stroke="#efb6cd" d="M245.803,-323.74C239.058,-313.958 232.381,-304.274 225.991,-295.005"/>
<ellipse fill="none" stroke="#efb6cd" cx="248.148" cy="-327.141" rx="4.00002" ry="4.00002"/>
<polygon fill="#efb6cd" stroke="#efb6cd" points="225.885,-294.852 223.913,-284.064 223.046,-290.735 220.208,-286.619 220.208,-286.619 220.208,-286.619 223.046,-290.735 216.503,-289.173 225.885,-294.852 225.885,-294.852"/>
</g>
<!-- User&#45;&gt;FinancialSummary -->
<g id="edge4" class="edge"><title>User&#45;&gt;FinancialSummary</title>
<path fill="none" stroke="#520032" d="M327.688,-322.16C327.688,-311.018 327.688,-300.027 327.688,-289.655"/>
<ellipse fill="none" stroke="#520032" cx="327.688" cy="-326.434" rx="4" ry="4"/>
<polygon fill="#520032" stroke="#520032" points="327.688,-289.507 332.188,-279.507 327.688,-284.507 327.688,-279.507 327.688,-279.507 327.688,-279.507 327.688,-284.507 323.188,-279.507 327.688,-289.507 327.688,-289.507"/>
</g>
<!-- User&#45;&gt;Institution -->
<g id="edge2" class="edge"><title>User&#45;&gt;Institution</title>
<path fill="none" stroke="#2d4770" d="M419.145,-323.984C424.882,-316.551 430.575,-309.173 436.118,-301.99"/>
<ellipse fill="none" stroke="#2d4770" cx="416.612" cy="-327.267" rx="4.00002" ry="4.00002"/>
<polygon fill="#2d4770" stroke="#2d4770" points="436.441,-301.571 446.113,-296.403 439.496,-297.613 442.55,-293.654 442.55,-293.654 442.55,-293.654 439.496,-297.613 438.988,-290.905 436.441,-301.571 436.441,-301.571"/>
</g>
</g>
</svg>
